<svg version="1.1" viewBox="0.0 0.0 960.0 720.0" fill="none" stroke="none" stroke-linecap="square" stroke-miterlimit="10" xmlns:xlink="http://www.w3.org/1999/xlink" xmlns="http://www.w3.org/2000/svg"><clipPath id="p.0"><path d="m0 0l960.0 0l0 720.0l-960.0 0l0 -720.0z" clip-rule="nonzero"/></clipPath><g clip-path="url(#p.0)"><path stroke="#000000" stroke-width="1.0" stroke-linejoin="round" stroke-linecap="butt" d="m267.0 142.55643l46.015747 0l0 14.992126l-46.015747 0z" fill-rule="evenodd"/><path stroke="#000000" stroke-width="1.0" stroke-linejoin="round" stroke-linecap="butt" d="m326.0 142.55643l46.015747 0l0 14.992126l-46.015747 0z" fill-rule="evenodd"/><path stroke="#000000" stroke-width="1.0" stroke-linejoin="round" stroke-linecap="butt" d="m385.0 142.55643l46.015747 0l0 14.992126l-46.015747 0z" fill-rule="evenodd" id="Above" /><path stroke="#000000" stroke-width="1.0" stroke-linejoin="round" stroke-linecap="butt" d="m444.0 142.55643l46.015747 0l0 14.992126l-46.015747 0z" fill-rule="evenodd"/><path stroke="#000000" stroke-width="1.0" stroke-linejoin="round" stroke-linecap="butt" d="m503.0 142.55643l46.015747 0l0 14.992126l-46.015747 0z" fill-rule="evenodd"/><path stroke="#000000" stroke-width="1.0" stroke-linejoin="round" stroke-linecap="butt" d="m267.0 201.5538l46.015747 0l0 14.992126l-46.015747 0z" fill-rule="evenodd"/><path stroke="#000000" stroke-width="1.0" stroke-linejoin="round" stroke-linecap="butt" d="m326.0 201.5538l46.015747 0l0 14.992126l-46.015747 0z" fill-rule="evenodd"/><path stroke="#000000" stroke-width="1.0" stroke-linejoin="round" stroke-linecap="butt" d="m385.0 201.5538l46.015747 0l0 14.992126l-46.015747 0z" fill-rule="evenodd"/><path stroke="#000000" stroke-width="1.0" stroke-linejoin="round" stroke-linecap="butt" d="m444.0 201.5538l46.015747 0l0 14.992126l-46.015747 0z" fill-rule="evenodd"/><path stroke="#000000" stroke-width="1.0" stroke-linejoin="round" stroke-linecap="butt" d="m503.0 201.5538l46.015747 0l0 14.992126l-46.015747 0z" fill-rule="evenodd"/><path fill="#000000" fill-opacity="0.0" d="m562.0 201.5538l46.015747 0l0 14.992126l-46.015747 0z" fill-rule="evenodd"/><path fill="#000000" fill-opacity="0.0" d="m385.0 172.05511l46.015747 0l0 14.992126l-46.015747 0z" fill-rule="evenodd"/><path stroke="#000000" stroke-width="1.0" stroke-linejoin="round" stroke-linecap="butt" d="m385.0 172.05511l46.015747 0l0 14.992126l-46.015747 0z" fill-rule="evenodd"/><path fill="#000000" fill-opacity="0.0" d="m290.00787 157.54855l0 7.253311l118.01575 0l0 7.2663727" fill-rule="evenodd"/><path stroke="#000000" stroke-width="1.0" stroke-linejoin="round" stroke-linecap="butt" d="m290.00787 157.54855l0 7.253311l118.01575 0l0 7.2663727" fill-rule="evenodd"/><path fill="#000000" fill-opacity="0.0" d="m349.00787 157.54855l0 7.253311l58.992126 0l0 7.2663727" fill-rule="evenodd"/><path stroke="#000000" stroke-width="1.0" stroke-linejoin="round" stroke-linecap="butt" d="m349.00787 157.54855l0 7.253311l58.992126 0l0 7.2663727" fill-rule="evenodd"/><path fill="#000000" fill-opacity="0.0" d="m408.00787 157.54855l0 7.253311l0.06298828 0l0 7.2663727" fill-rule="evenodd"/><path stroke="#000000" stroke-width="1.0" stroke-linejoin="round" stroke-linecap="butt" d="m408.00787 157.54855l0 7.253311l0.06298828 0l0 7.2663727" fill-rule="evenodd"/><path fill="#000000" fill-opacity="0.0" d="m467.00787 157.54855l0 7.253311l-58.992126 0l0 7.2663727" fill-rule="evenodd"/><path stroke="#000000" stroke-width="1.0" stroke-linejoin="round" stroke-linecap="butt" d="m467.00787 157.54855l0 7.253311l-58.992126 0l0 7.2663727" fill-rule="evenodd"/><path fill="#000000" fill-opacity="0.0" d="m526.0079 157.54855l0 7.253311l-118.01575 0l0 7.2663727" fill-rule="evenodd"/><path stroke="#000000" stroke-width="1.0" stroke-linejoin="round" stroke-linecap="butt" d="m526.0079 157.54855l0 7.253311l-118.01575 0l0 7.2663727" fill-rule="evenodd"/><path fill="#000000" fill-opacity="0.0" d="m290.00787 201.5538l0 -7.253311l118.01575 0l0 -7.2663727" fill-rule="evenodd"/><path stroke="#000000" stroke-width="1.0" stroke-linejoin="round" stroke-linecap="butt" d="m290.00787 201.5538l0 -7.253311l118.01575 0l0 -7.2663727" fill-rule="evenodd"/><path fill="#000000" fill-opacity="0.0" d="m349.00787 201.5538l0 -7.253311l58.992126 0l0 -7.2663727" fill-rule="evenodd"/><path stroke="#000000" stroke-width="1.0" stroke-linejoin="round" stroke-linecap="butt" d="m349.00787 201.5538l0 -7.253311l58.992126 0l0 -7.2663727" fill-rule="evenodd"/><path fill="#000000" fill-opacity="0.0" d="m407.9449 201.56693l0 -7.259842l0.06298828 0l0 -7.259842" fill-rule="evenodd"/><path stroke="#000000" stroke-width="1.0" stroke-linejoin="round" stroke-linecap="butt" d="m407.9449 201.56693l0 -7.259842l0.06298828 0l0 -7.259842" fill-rule="evenodd"/><path fill="#000000" fill-opacity="0.0" d="m467.00787 201.5538l0 -7.253311l-58.992126 0l0 -7.2663727" fill-rule="evenodd"/><path stroke="#000000" stroke-width="1.0" stroke-linejoin="round" stroke-linecap="butt" d="m467.00787 201.5538l0 -7.253311l-58.992126 0l0 -7.2663727" fill-rule="evenodd"/><path fill="#000000" fill-opacity="0.0" d="m526.0079 201.5538l0 -7.253311l-118.01575 0l0 -7.2663727" fill-rule="evenodd"/><path stroke="#000000" stroke-width="1.0" stroke-linejoin="round" stroke-linecap="butt" d="m526.0079 201.5538l0 -7.253311l-118.01575 0l0 -7.2663727" fill-rule="evenodd"/></g></svg>