<svg version="1.1" viewBox="0.0 0.0 960.0 720.0" fill="none" stroke="none" stroke-linecap="square" stroke-miterlimit="10" xmlns:xlink="http://www.w3.org/1999/xlink" xmlns="http://www.w3.org/2000/svg"><clipPath id="p.0"><path d="m0 0l960.0 0l0 720.0l-960.0 0l0 -720.0z" clip-rule="nonzero"/></clipPath><g clip-path="url(#p.0)"><path fill="#000000" fill-opacity="0.0" d="m0 0l960.0 0l0 720.0l-960.0 0z" fill-rule="evenodd"/><path fill="#000000" fill-opacity="0.0" d="m235.26546 56.272964l83.37007 0l0 103.40158l-83.37007 0z" fill-rule="evenodd"/><path stroke="#000000" stroke-width="1.0" stroke-linejoin="round" stroke-linecap="butt" d="m235.26546 56.272964l83.37007 0l0 103.40158l-83.37007 0z" fill-rule="evenodd" id="Above_Far_Left"/><path fill="#000000" fill-opacity="0.0" d="m342.15933 56.272964l83.37009 0l0 103.40158l-83.37009 0z" fill-rule="evenodd"/><path stroke="#000000" stroke-width="1.0" stroke-linejoin="round" stroke-linecap="butt" d="m342.15933 56.272964l83.37009 0l0 103.40158l-83.37009 0z" fill-rule="evenodd" id="Above_Left"/><path fill="#000000" fill-opacity="0.0" d="m449.05322 56.272964l83.370056 0l0 103.40158l-83.370056 0z" fill-rule="evenodd"/><path stroke="#000000" stroke-width="1.0" stroke-linejoin="round" stroke-linecap="butt" d="m449.05322 56.272964l83.370056 0l0 103.40158l-83.370056 0z" fill-rule="evenodd" id="Above"/><path fill="#000000" fill-opacity="0.0" d="m555.9471 56.272964l83.37012 0l0 103.40158l-83.37012 0z" fill-rule="evenodd"/><path stroke="#000000" stroke-width="1.0" stroke-linejoin="round" stroke-linecap="butt" d="m555.9471 56.272964l83.37012 0l0 103.40158l-83.37012 0z" fill-rule="evenodd" id="Above_Right"/><path fill="#000000" fill-opacity="0.0" d="m662.841 56.272964l83.370056 0l0 103.40158l-83.370056 0z" fill-rule="evenodd"/><path stroke="#000000" stroke-width="1.0" stroke-linejoin="round" stroke-linecap="butt" d="m662.841 56.272964l83.370056 0l0 103.40158l-83.370056 0z" fill-rule="evenodd" id="Above_Far_Right"/><path fill="#000000" fill-opacity="0.0" d="m235.26546 463.21075l83.37007 0l0 103.40155l-83.37007 0z" fill-rule="evenodd"/><path stroke="#000000" stroke-width="1.0" stroke-linejoin="round" stroke-linecap="butt" d="m235.26546 463.21075l83.37007 0l0 103.40155l-83.37007 0z" fill-rule="evenodd" id="Below_Far_Left"/><path fill="#000000" fill-opacity="0.0" d="m342.15933 463.21075l83.37009 0l0 103.40155l-83.37009 0z" fill-rule="evenodd"/><path stroke="#000000" stroke-width="1.0" stroke-linejoin="round" stroke-linecap="butt" d="m342.15933 463.21075l83.37009 0l0 103.40155l-83.37009 0z" fill-rule="evenodd" id="Below_Left"/><path fill="#000000" fill-opacity="0.0" d="m449.05322 463.21075l83.370056 0l0 103.40155l-83.370056 0z" fill-rule="evenodd"/><path stroke="#000000" stroke-width="1.0" stroke-linejoin="round" stroke-linecap="butt" d="m449.05322 463.21075l83.370056 0l0 103.40155l-83.370056 0z" fill-rule="evenodd" id="Below"/><path fill="#000000" fill-opacity="0.0" d="m555.9471 463.21075l83.37012 0l0 103.40155l-83.37012 0z" fill-rule="evenodd"/><path stroke="#000000" stroke-width="1.0" stroke-linejoin="round" stroke-linecap="butt" d="m555.9471 463.21075l83.37012 0l0 103.40155l-83.37012 0z" fill-rule="evenodd" id="Below_Right"/><path fill="#000000" fill-opacity="0.0" d="m662.841 463.21075l83.370056 0l0 103.40155l-83.370056 0z" fill-rule="evenodd"/><path stroke="#000000" stroke-width="1.0" stroke-linejoin="round" stroke-linecap="butt" d="m662.841 463.21075l83.370056 0l0 103.40155l-83.370056 0z" fill-rule="evenodd" id="Below_Far_Right"/><path fill="#000000" fill-opacity="0.0" d="m449.05322 259.74185l83.370056 0l0 103.40158l-83.370056 0z" fill-rule="evenodd"/><path stroke="#000000" stroke-width="4.0" stroke-linejoin="round" stroke-linecap="butt" d="m449.05322 259.74185l83.370056 0l0 103.40158l-83.370056 0z" fill-rule="evenodd" id="Centre"/><path fill="#000000" fill-opacity="0.0" d="m276.9505 159.67455l0 49.986465l213.79526 0l0 50.076508" fill-rule="evenodd"/><path stroke="#000000" stroke-width="1.0" stroke-linejoin="round" stroke-linecap="butt" d="m276.9505 159.67455l0 49.986465l213.79526 0l0 50.076508" fill-rule="evenodd"/><path fill="#000000" fill-opacity="0.0" d="m383.8444 159.67455l0 49.986465l106.89761 0l0 50.076508" fill-rule="evenodd"/><path stroke="#000000" stroke-width="1.0" stroke-linejoin="round" stroke-linecap="butt" d="m383.8444 159.67455l0 49.986465l106.89761 0l0 50.076508" fill-rule="evenodd"/><path fill="#000000" fill-opacity="0.0" d="m490.73825 159.67455l0 49.986465l0.06298828 0l0 50.076508" fill-rule="evenodd"/><path stroke="#000000" stroke-width="1.0" stroke-linejoin="round" stroke-linecap="butt" d="m490.73825 159.67455l0 49.986465l0.06298828 0l0 50.076508" fill-rule="evenodd"/><path fill="#000000" fill-opacity="0.0" d="m597.63214 159.67455l0 49.986465l-106.897644 0l0 50.076508" fill-rule="evenodd"/><path stroke="#000000" stroke-width="1.0" stroke-linejoin="round" stroke-linecap="butt" d="m597.63214 159.67455l0 49.986465l-106.897644 0l0 50.076508" fill-rule="evenodd"/><path fill="#000000" fill-opacity="0.0" d="m704.526 159.67455l0 49.986465l-213.79526 0l0 50.076508" fill-rule="evenodd"/><path stroke="#000000" stroke-width="1.0" stroke-linejoin="round" stroke-linecap="butt" d="m704.526 159.67455l0 49.986465l-213.79526 0l0 50.076508" fill-rule="evenodd"/><path fill="#000000" fill-opacity="0.0" d="m276.9505 463.21075l0 -49.98648l213.79526 0l0 -50.076508" fill-rule="evenodd"/><path stroke="#000000" stroke-width="1.0" stroke-linejoin="round" stroke-linecap="butt" d="m276.9505 463.21075l0 -49.98648l213.79526 0l0 -50.076508" fill-rule="evenodd"/><path fill="#000000" fill-opacity="0.0" d="m383.8444 463.21075l0 -49.98648l106.89761 0l0 -50.076508" fill-rule="evenodd"/><path stroke="#000000" stroke-width="1.0" stroke-linejoin="round" stroke-linecap="butt" d="m383.8444 463.21075l0 -49.98648l106.89761 0l0 -50.076508" fill-rule="evenodd"/><path fill="#000000" fill-opacity="0.0" d="m490.61227 463.2694l0 -50.06299l0.12597656 0l0 -50.06299" fill-rule="evenodd"/><path stroke="#000000" stroke-width="1.0" stroke-linejoin="round" stroke-linecap="butt" d="m490.61227 463.2694l0 -50.06299l0.12597656 0l0 -50.06299" fill-rule="evenodd"/><path fill="#000000" fill-opacity="0.0" d="m597.63214 463.21075l0 -49.98648l-106.897644 0l0 -50.076508" fill-rule="evenodd"/><path stroke="#000000" stroke-width="1.0" stroke-linejoin="round" stroke-linecap="butt" d="m597.63214 463.21075l0 -49.98648l-106.897644 0l0 -50.076508" fill-rule="evenodd"/><path fill="#000000" fill-opacity="0.0" d="m704.526 463.21075l0 -49.98648l-213.79526 0l0 -50.076508" fill-rule="evenodd"/><path stroke="#000000" stroke-width="1.0" stroke-linejoin="round" stroke-linecap="butt" d="m704.526 463.21075l0 -49.98648l-213.79526 0l0 -50.076508" fill-rule="evenodd"/></g></svg>